<svg width="56" height="57" viewBox="0 0 56 57" fill="none" xmlns="http://www.w3.org/2000/svg">
<rect y="0.777344" width="56" height="56" rx="28" fill="#3A4E7A"/>
<path fill-rule="evenodd" clip-rule="evenodd" d="M32.5236 31.0791H18.3013C17.0313 31.0791 16 30.0479 16 28.7778C16 27.5077 17.0312 26.4765 18.3013 26.4765H32.5236L30.0378 23.7233C29.1881 22.7829 29.2661 21.3214 30.2085 20.4738C31.1489 19.628 32.6065 19.705 33.4543 20.6435L39.3408 27.1654C39.7651 27.5907 40 28.1769 40 28.7769C40 29.3779 39.7701 29.9571 39.3457 30.3825L33.4544 36.9104C32.6067 37.8499 31.1492 37.9268 30.2086 37.0801C29.2662 36.2324 29.1892 34.7719 30.0379 33.8306L32.5237 31.0774L32.5236 31.0791Z" fill="white"/>
</svg>
