<svg width="56" height="57" viewBox="0 0 56 57" fill="none" xmlns="http://www.w3.org/2000/svg">
<rect y="0.777344" width="56" height="56" rx="28" fill="white"/>
<path fill-rule="evenodd" clip-rule="evenodd" d="M23.4764 31.0791H37.6987C38.9687 31.0791 40 30.0479 40 28.7778C40 27.5077 38.9688 26.4765 37.6987 26.4765H23.4764L25.9622 23.7233C26.8119 22.7829 26.7339 21.3214 25.7915 20.4738C24.8511 19.628 23.3935 19.705 22.5457 20.6435L16.6592 27.1654C16.2349 27.5907 16 28.1769 16 28.7769C16 29.3779 16.2299 29.9571 16.6543 30.3825L22.5456 36.9104C23.3933 37.8499 24.8508 37.9268 25.7914 37.0801C26.7338 36.2324 26.8108 34.7719 25.9621 33.8306L23.4763 31.0774L23.4764 31.0791Z" fill="#212121"/>
</svg>
