<svg width="32" height="32" viewBox="0 0 32 32" fill="none" xmlns="http://www.w3.org/2000/svg">
<path d="M0 16C0 24.8366 7.16344 32 16 32C24.8366 32 32 24.8366 32 16C32 7.16344 24.8366 0 16 0C7.16344 0 0 7.16344 0 16Z" fill="white"/>
<g clip-path="url(#clip0_419_530)">
<path d="M6.7878 24H10.1817V15.7576L5.33325 12.1212V22.5455C5.33325 23.3503 5.98537 24 6.7878 24Z" fill="#4285F4"/>
<path d="M21.8181 24H25.2121C26.0169 24 26.6666 23.3479 26.6666 22.5455V12.1212L21.8181 15.7576" fill="#34A853"/>
<path d="M21.8181 9.45452V15.7576L26.6666 12.1212V10.1818C26.6666 8.38301 24.6133 7.35755 23.1757 8.43634" fill="#FBBC04"/>
<path d="M10.1816 15.7576V9.45453L15.9998 13.8182L21.818 9.45453V15.7576L15.9998 20.1212" fill="#EA4335"/>
<path d="M5.33325 10.1818V12.1212L10.1817 15.7576V9.45452L8.82416 8.43634C7.38416 7.35755 5.33325 8.38301 5.33325 10.1818Z" fill="#C5221F"/>
</g>
<defs>
<clipPath id="clip0_419_530">
<rect width="21.3333" height="16" fill="white" transform="translate(5.33325 8)"/>
</clipPath>
</defs>
</svg>
