<svg width="16" height="17" viewBox="0 0 16 17" fill="none" xmlns="http://www.w3.org/2000/svg">
<path d="M8 2.90702C11.3085 2.90702 14.0002 5.59872 14.0002 8.90726C14.0002 10.5095 13.3758 12.0171 12.2424 13.1497C11.1098 14.2832 9.60226 14.9075 7.99995 14.9075C4.69142 14.9075 1.99971 12.2158 1.99971 8.9073C1.99971 7.30505 2.62412 5.7975 3.75759 4.6649C4.89015 3.5314 6.3977 2.90702 8 2.90702ZM8 0.907257C3.58142 0.907257 0 4.48868 0 8.90726C0 13.3258 3.58142 16.9073 8 16.9073C12.4186 16.9073 16 13.3258 16 8.90726C16 4.48868 12.4186 0.907257 8 0.907257Z" fill="#212121"/>
<path d="M7.99999 4.9068C7.44778 4.9068 6.99963 5.35495 6.99963 5.90716C6.99963 6.45937 7.44778 6.90752 7.99999 6.90752C8.55221 6.90752 9.00035 6.45937 9.00035 5.90716C9.00035 5.35495 8.55221 4.9068 7.99999 4.9068Z" fill="#212121"/>
<path d="M7.99999 7.90752C7.44778 7.90752 6.99963 8.35566 6.99963 8.90788V11.908C6.99963 12.4602 7.44778 12.9084 7.99999 12.9084C8.55221 12.9084 9.00035 12.4602 9.00035 11.908V8.90788C9.00035 8.35566 8.55221 7.90752 7.99999 7.90752Z" fill="#212121"/>
</svg>
