<svg width="37" height="25" viewBox="0 0 37 25" fill="none" xmlns="http://www.w3.org/2000/svg">
<path d="M7.89184 23.8895H0.313721C2.84071 23.1915 3.4048 22.6275 4.10278 20.1005C4.80077 22.6275 5.36485 23.1915 7.89184 23.8895Z" fill="#212121"/>
<path d="M27.9739 19.6788C26.8258 19.995 26.5666 20.2543 26.2503 21.4024C25.9341 20.2543 25.6748 19.995 24.5267 19.6788C25.6748 19.3626 25.9341 19.1033 26.2503 17.9552C26.5666 19.1033 26.8258 19.3626 27.9739 19.6788Z" fill="#212121"/>
<path d="M20.4642 19.8412L18.393 24.2884C18.2819 24.5248 17.9458 24.5248 17.8347 24.2884L8.12554 3.46846L8.08565 3.38014L7.99164 3.17787C7.26231 1.69928 5.81506 0.642331 4.10571 0.465698H11.3562C11.4759 0.465698 11.587 0.536922 11.6354 0.642332L20.4671 19.5848C20.5069 19.6646 20.5069 19.7614 20.4671 19.8412H20.4642Z" fill="#212121"/>
<path d="M36.854 19.8412L34.7828 24.2884C34.6717 24.5248 34.3355 24.5248 34.2244 24.2884L24.5153 3.46846L24.4754 3.38014L24.3814 3.17787C23.6521 1.69928 22.2048 0.642331 20.4955 0.465698H27.746C27.8656 0.465698 27.9767 0.536922 28.0252 0.642332L36.8568 19.5848C36.8967 19.6646 36.8967 19.7614 36.8568 19.8412H36.854Z" fill="#212121"/>
</svg>
