<svg width="64" height="64" viewBox="0 0 64 64" fill="none" xmlns="http://www.w3.org/2000/svg">
<rect width="64" height="64" rx="32" fill="#F0F0EF"/>
<path d="M17.9459 46.9932H8C11.3165 46.0771 12.0569 45.3368 12.9729 42.0203C13.889 45.3368 14.6294 46.0771 17.9459 46.9932Z" fill="#212121"/>
<path d="M44.3023 41.4668C42.7955 41.8819 42.4552 42.2221 42.0402 43.729C41.6252 42.2221 41.2849 41.8819 39.7781 41.4668C41.2849 41.0518 41.6252 40.7115 42.0402 39.2047C42.4552 40.7115 42.7955 41.0518 44.3023 41.4668Z" fill="#212121"/>
<path d="M34.4465 41.68L31.7282 47.5166C31.5824 47.827 31.1412 47.827 30.9953 47.5166L18.2526 20.1917L18.2003 20.0758L18.0769 19.8103C17.1197 17.8697 15.2202 16.4826 12.9768 16.2507H22.4927C22.6498 16.2507 22.7956 16.3442 22.8591 16.4826L34.4502 41.3435C34.5026 41.4482 34.5026 41.5753 34.4502 41.68H34.4465Z" fill="#212121"/>
<path d="M55.957 41.68L53.2387 47.5166C53.0929 47.827 52.6517 47.827 52.5058 47.5166L39.7631 20.1917L39.7108 20.0758L39.5874 19.8103C38.6302 17.8697 36.7307 16.4826 34.4873 16.2507H44.0032C44.1602 16.2507 44.3061 16.3442 44.3696 16.4826L55.9607 41.3435C56.0131 41.4482 56.0131 41.5753 55.9607 41.68H55.957Z" fill="#212121"/>
</svg>
