<svg width="34" height="34" viewBox="0 0 34 34" fill="none" xmlns="http://www.w3.org/2000/svg">
<path d="M1 17C1 25.8366 8.16344 33 17 33C25.8366 33 33 25.8366 33 17C33 8.16344 25.8366 1 17 1C8.16344 1 1 8.16344 1 17Z" fill="#212121"/>
<path d="M11.4418 9.59473C15.4139 9.59473 18.6336 12.9104 18.6336 17.0001C18.6336 21.0899 15.4136 24.4053 11.4418 24.4053C7.47017 24.4053 4.25 21.0899 4.25 17.0001C4.25 12.9105 7.46987 9.59473 11.4418 9.59473ZM22.9268 10.0285C24.9128 10.0285 26.5228 13.1495 26.5228 17.0001H26.5231C26.5231 20.8498 24.9131 23.9718 22.9272 23.9718C20.9412 23.9718 19.3312 20.8498 19.3312 17.0001C19.3312 13.1505 20.9408 10.0285 22.9269 10.0285H22.9268ZM28.4853 10.7547C29.1836 10.7547 29.75 13.5509 29.75 17.0002C29.75 20.4484 29.1838 23.2457 28.4853 23.2457C27.7867 23.2457 27.2208 20.4493 27.2208 17.0002C27.2208 13.5511 27.787 10.7547 28.4853 10.7547Z" fill="white"/>
</svg>
