<svg width="16" height="17" viewBox="0 0 16 17" fill="none" xmlns="http://www.w3.org/2000/svg">
<path d="M14.3231 5.90214C13.3545 4.6026 12.3859 3.30307 11.4176 2.0038C11.1961 1.70702 10.9036 1.09797 10.5201 0.992123C10.0235 0.855814 9.37791 0.924625 8.87364 0.924625C7.38107 0.924625 5.88902 0.924625 4.39645 0.924625C0.721889 1.18726 1.4599 5.40969 1.4599 7.90738C1.4599 9.75451 1.4599 11.6019 1.4599 13.4496C1.4599 15.0196 1.9077 16.4208 3.59383 16.7827C4.69928 17.0199 5.96125 16.8455 7.07457 16.8455C8.49071 16.8455 9.90082 16.8959 11.3159 16.8431C13.0165 16.7798 14.4983 15.6644 14.4988 13.8643C14.4993 12.2265 14.4959 10.5881 14.4965 8.95031C14.497 8.18892 14.8213 6.57055 14.3231 5.90214ZM12.6052 5.75821C12.0416 5.681 11.4401 5.60404 10.9149 5.52683C10.9149 4.84817 10.9149 4.16952 10.9149 3.49086C11.4401 4.24647 12.0416 5.00234 12.6052 5.75821ZM13.1121 13.8159C13.1116 15.4929 11.3422 15.3697 10.1587 15.3697C8.33208 15.3697 6.5057 15.3697 4.67931 15.3697C3.3719 15.3697 2.77309 14.992 2.77309 13.5586C2.77309 11.76 2.77309 9.96199 2.77309 8.16345C2.77309 6.7389 2.57716 5.26209 2.77782 3.84489C2.89312 3.0252 3.58884 2.50045 4.39645 2.50045C6.11253 2.50045 7.82887 2.50045 9.54521 2.50045C9.47928 2.50045 9.33903 2.6126 9.33903 2.76309C9.33903 3.88298 9.33903 5.0026 9.33903 6.12249C9.33903 6.39826 9.59616 6.74652 9.89425 6.78723C10.7959 6.91067 11.7219 7.03384 12.6236 7.15728C12.8027 7.18197 12.9713 7.14257 13.1018 7.06746C13.1018 7.69516 13.1076 8.29871 13.1074 8.92615C13.1071 10.5642 13.1126 12.1781 13.1121 13.8159Z" fill="#212121"/>
</svg>
