<svg width="56" height="56" viewBox="0 0 56 56" fill="none" xmlns="http://www.w3.org/2000/svg">
<rect width="56" height="56" rx="28" fill="white"/>
<path d="M35 32C33.875 32 32.85 32.475 32.125 33.2L24.85 29.05C24.95 28.725 25 28.375 25 28C25 27.625 24.95 27.275 24.85 26.95L32.125 22.8C32.85 23.55 33.875 24 35 24C37.2 24 39 22.2 39 20C39 17.8 37.2 16 35 16C32.8 16 31 17.8 31 20C31 20.375 31.05 20.725 31.15 21.05L23.875 25.2C23.15 24.45 22.125 24 21 24C18.8 24 17 25.8 17 28C17 30.2 18.8 32 21 32C22.125 32 23.15 31.525 23.875 30.8L31.15 34.95C31.05 35.275 31 35.625 31 36C31 38.2 32.8 40 35 40C37.2 40 39 38.2 39 36C39 33.8 37.2 32 35 32Z" fill="#212121"/>
</svg>
